<svg xmlns="http://www.w3.org/2000/svg" viewBox="0 0 32 32"><g data-name="43-Video-Setting"><path d="M31 4h-3a1 1 0 0 0-.71.29L25.59 6H24V5a3 3 0 0 0-3-3H3a3 3 0 0 0-3 3v16a3 3 0 0 0 3 3h9v-2H3a1 1 0 0 1-1-1V5a1 1 0 0 1 1-1h18a1 1 0 0 1 1 1v5h2V8h2a1 1 0 0 0 .71-.29L28.41 6H30v15h2V5a1 1 0 0 0-1-1z"/><path d="m25.43 21 1.27-1.27-1.41-1.41L24 19.57a4 4 0 0 0-1-.42V17h-2v2.14a4 4 0 0 0-1 .42l-1.27-1.27-1.41 1.41 1.25 1.3a4 4 0 0 0-.42 1H16v2h2.14a4 4 0 0 0 .42 1l-1.27 1.27 1.41 1.41 1.3-1.25a4 4 0 0 0 1 .42V29h2v-2.14a4 4 0 0 0 1-.42l1.27 1.27 1.41-1.41-1.25-1.3a4 4 0 0 0 .42-1H28v-2h-2.14a4 4 0 0 0-.43-1zM22 25a2 2 0 1 1 2-2 2 2 0 0 1-2 2z"/></g></svg>